<?xml version="1.0" encoding="utf-8"?>
<!-- Generator: Adobe Illustrator 23.0.1, SVG Export Plug-In . SVG Version: 6.00 Build 0)  -->
<svg version="1.1" id="Layer_1" xmlns="http://www.w3.org/2000/svg" xmlns:xlink="http://www.w3.org/1999/xlink" x="0px" y="0px"
	 viewBox="0 0 558 449" style="enable-background:new 0 0 558 449;" xml:space="preserve">
<style type="text/css">
	.st0{fill:#EFCF48;stroke:#808080;stroke-width:3;stroke-miterlimit:10;}
	.st1{display:none;fill:#EFCF48;stroke:#808080;stroke-width:3;stroke-miterlimit:10;}
	.st2{fill:#EFCF48;}
	.st3{fill:none;stroke:#808080;stroke-width:2;stroke-miterlimit:10;}
	.st4{fill:#EFCF48;stroke:#808080;stroke-width:2;stroke-miterlimit:10;}
</style>
<g>
	<path class="st0" d="M524.06,770c-0.18-7.85-6.76-14.13-14.61-13.95L348.6,759.9c-2.51,0.06-4.86-1.29-6.06-3.5
		c-1.06-1.97-1.5-3.87,0.97-7.18c0.59-0.79,1.47-1.32,2.43-1.53c16.78-3.59,173.97-37.21,173.97-37.21
		c7.7-1.55,12.73-9.12,11.18-16.82l-1.41-7c-1.55-7.7-9.12-12.73-16.82-11.18l-179.66,36.16c-1.37,0.28-2.79,0.1-4.06-0.46
		c-1.4-0.63-2.52-1.25-3.41-1.87c-4.13-2.88-3.54-9.17,0.99-11.35c20.41-9.8,105.06-50.44,137.66-66.1
		c7.08-3.4,10.09-11.98,6.69-19.06l-3.09-6.44c-3.4-7.08-11.98-10.09-19.06-6.69L290.59,675.7c-1.69,0.81-3.55,1.23-5.43,1.24
		c-6.11,0.03-11.25-0.2-21.66-1.94c-0.24-0.04-0.47-0.08-0.7-0.12c-4.53-0.77-4.73-25.52-3.3-29.88l2.7-7.26
		c0.79-4.11,3.02-7.82,6.3-10.43c0.46-0.36,0.76-0.69,0.78-0.93c16.25-8.3,25-21.23,16.9-37.78l-1.29-5.55
		c-2.27-4.64-6.65-1.03-11.29,1.24L245.5,599c-2.31,1.13-6,3-11,6c-4.27,1.32-7.32,5.83-8.82,10.38l-18.24,55.4
		c-0.09,0.26-0.15,0.53-0.22,0.8l-25.89,17.83c-2.24,1.39-30.01,12.68-31.84,14.59l-0.99,16l3.85,94.52L192.5,823
		c10.24,2.08,44,11,61,13c11.77,1.38,20,0,32.35,2.61L411.5,865c7.16,1.66,21.34,2.16,23-5l3-8c1.66-7.16-4.19-12.49-11.35-14.15
		l-96.33-24.77c-2.41-0.6-3.74-3.22-2.76-5.51c1.59-3.72,3.65-6.62,6.33-9.77c1.08-1.27,2.66-2.01,4.32-2.05
		c18.57-0.43,132.13-3.06,172.56-3.99c7.85-0.18,14.13-6.76,13.94-14.61L524.06,770z"/>
	<path class="st1" d="M420.92,870.58c-3.65,0-7.32-0.47-10.44-1.19l-125.56-26.37c-6.91-1.46-12.48-1.6-18.38-1.75
		c-4.21-0.1-8.56-0.21-13.57-0.8c-12.25-1.44-32.55-6.29-47.38-9.82c-5.93-1.42-11.05-2.64-14-3.24l-43.59-9.21L144,719.95
		l1.11-17.88l1.14-1.19c1.36-1.42,4.47-3,22.42-10.75c4.33-1.87,9.21-3.98,10.27-4.54l24.43-16.83l18.04-54.79
		c2.13-6.47,6.29-11.31,11.2-13.08c4.87-2.91,8.52-4.75,10.86-5.91l28.15-14.74c0.74-0.36,1.48-0.77,2.2-1.16
		c3.1-1.69,6.62-3.61,10.29-2.44c1.44,0.46,3.44,1.59,4.82,4.42l0.23,0.46l1.29,5.57c8,16.86,1.43,32.37-18.07,42.75
		c-0.42,0.46-0.83,0.79-1.07,0.99c-2.43,1.93-4.09,4.69-4.68,7.76l-0.07,0.37l-2.79,7.5c-1.03,3.48-0.65,19.77,1.11,24.21
		c9.32,1.53,14.18,1.8,20.27,1.77c1.21-0.01,2.42-0.28,3.5-0.8l158.34-76.03c4.51-2.17,9.6-2.44,14.35-0.77
		c4.74,1.67,8.55,5.07,10.71,9.58l3.09,6.44c4.48,9.34,0.54,20.58-8.8,25.06l-137.66,66.09c-1,0.48-1.18,1.4-1.21,1.78
		c-0.04,0.44,0.03,1.26,0.85,1.83c0.69,0.48,1.59,0.97,2.67,1.45c0.43,0.19,0.91,0.25,1.34,0.16l179.66-36.16
		c4.9-0.98,9.91,0,14.1,2.79c4.19,2.78,7.04,7.02,8.02,11.92l1.41,7c2.04,10.15-4.55,20.08-14.71,22.12l-173.8,37.17
		c-0.76,1.06-0.81,1.51-0.81,1.51c0,0,0.03,0.17,0.31,0.69c0.38,0.71,1.17,1.18,1.99,1.14l160.84-3.85
		c10.33-0.24,18.98,7.99,19.22,18.34v0l0.16,7.14c0.24,10.35-7.99,18.97-18.34,19.21l-172.56,3.99c-0.39,0.01-0.75,0.18-1,0.47
		c-2.6,3.06-4.2,5.45-5.4,8.13l95.81,24.64c10.55,2.47,16.72,10.68,14.66,19.54l-0.17,0.56l-2.91,7.76
		C436.97,868.28,428.98,870.58,420.92,870.58z M156.71,810.84l36.72,7.76c3.06,0.62,8,1.8,14.26,3.29
		c14.61,3.49,34.61,8.26,46.34,9.64c4.59,0.54,8.73,0.64,12.74,0.74c6.05,0.15,12.3,0.3,20.02,1.94l125.65,26.39
		c8.35,1.94,17.15,0.71,17.69-1.61l0.17-0.56l2.88-7.69c0.96-5.01-4.57-7.69-8.04-8.5l-0.1-0.03l-96.33-24.77
		c-2.41-0.6-4.45-2.24-5.57-4.5c-1.11-2.24-1.19-4.84-0.21-7.14c1.61-3.77,3.65-6.94,7.04-10.92c1.91-2.24,4.69-3.56,7.65-3.63
		l172.56-3.99c5.39-0.13,9.67-4.61,9.55-10.01l-0.16-7.14c-0.13-5.39-4.59-9.7-10.01-9.55l-160.84,3.85
		c-4.24,0.09-8.12-2.14-10.13-5.86c-2.21-4.1-1.81-7.81,1.32-12c1.23-1.65,3.04-2.8,5.1-3.24l173.97-37.21
		c5.34-1.08,8.78-6.24,7.71-11.53l-1.41-7c-0.51-2.55-2-4.75-4.18-6.2c-2.19-1.45-4.79-1.97-7.34-1.46L334.1,716.05
		c-2.28,0.46-4.63,0.19-6.79-0.77c-1.62-0.72-2.98-1.47-4.15-2.29c-3.24-2.26-4.99-5.98-4.67-9.94c0.32-4,2.68-7.43,6.29-9.16
		l137.66-66.09c4.86-2.33,6.92-8.19,4.58-13.05l-3.09-6.44c-1.12-2.34-3.11-4.11-5.58-4.98c-2.48-0.87-5.13-0.73-7.47,0.4
		l-158.34,76.03c-2.27,1.09-4.81,1.67-7.35,1.68c-6.72,0.03-12.05-0.27-22.42-2l-0.72-0.12c-1.29-0.22-3.12-0.97-4.54-3.34
		c-4.02-6.66-3.8-27.75-2.27-32.39l0.06-0.16l2.58-6.93c0.99-4.7,3.49-8.95,7.09-12.08l0.08-0.92l2.21-1.13
		c11.12-5.68,22.73-15.81,14.9-31.8l-0.23-0.46l-1.05-4.52c-0.82,0.36-1.92,0.95-2.73,1.4c-0.82,0.44-1.65,0.9-2.49,1.31
		l-28.15,14.74c-2.27,1.11-5.83,2.92-10.66,5.82l-0.47,0.28l-0.52,0.16c-2.31,0.72-4.62,3.66-5.88,7.49l-18.24,55.4
		c-0.03,0.09-0.05,0.19-0.08,0.28l-0.49,1.87l-27.43,18.89c-1.05,0.65-3.82,1.87-11.48,5.17c-5.71,2.47-14.68,6.33-18.39,8.22
		l-0.83,13.43L156.71,810.84z M330.91,808.71L330.91,808.71C330.91,808.71,330.91,808.71,330.91,808.71z"/>
</g>
<g>
	<g>
		<g id="XMLID_1_">
			<g>
				<path class="st2" d="M354.14,296.38v6.63c0,7.36-5.16,13.36-11.5,13.36h-49l-0.01-0.09l-0.88,0.09h-36.69
					c-6.34,0-11.5-6-11.5-13.36v-6.63c0-6.91,4.54-12.61,10.33-13.29h88.92C349.6,283.77,354.14,289.47,354.14,296.38z"/>
				<path class="st2" d="M371.69,258.85v7.64c0,8.51-6.25,15.43-13.92,15.43H252.93c-7.68,0-13.93-6.92-13.93-15.43v-7.64
					c0-8.51,6.25-15.43,13.93-15.43h104.84C365.44,243.42,371.69,250.34,371.69,258.85z"/>
				<path class="st2" d="M377.9,218.09v7.25c0,8.96-6.52,16.24-14.54,16.24h-112.2c-8.01,0-14.54-7.28-14.54-16.24v-7.25
					c0-8.95,6.53-16.24,14.54-16.24h105.57c1.5,0.08,3,0.18,4.5,0.28l0.11,0.01l0.1-0.04c0.19-0.08,0.37-0.16,0.56-0.25h1.36
					C371.38,201.85,377.9,209.14,377.9,218.09z"/>
				<path class="st2" d="M260.54,149.94l14.54,12.14h-17.36v0.09c-1.49,0.11-2.98,0.43-4.39,0.95L260.54,149.94z"/>
				<path class="st2" d="M372.62,176.34c1.07,10.8-3.27,20.61-10.64,24.29h-6.82c-24.81-1.4-50.28-1.18-74.97-0.98
					c-8.74,0.08-17.78,0.15-26.59,0.15c-6.19-4.71-7.2-12.78-7.76-21.33l-0.95,0.08c0.12-0.21,0.23-0.42,0.35-0.63l7.23-13.22
					c1.66-0.79,3.45-1.27,5.25-1.4v0.01h18.84l14.48,12.09c6.06,5.06,13.53,7.76,21.32,7.76c1.03,0,2.08-0.04,3.13-0.14
					c8.89-0.83,16.93-5.08,22.64-11.98l1.77-2.14c1.38-1.66,2.09-3.67,2.15-5.68h18.18C366.3,164.5,371.69,170.1,372.62,176.34z"/>
				<path class="st2" d="M337.9,156.57c1.94,1.62,2.94,3.96,2.94,6.32c0,1.84-0.61,3.7-1.88,5.23l-1.77,2.14
					c-5.5,6.64-13.25,10.74-21.82,11.54c-8.56,0.79-16.93-1.82-23.55-7.34l-14.88-12.42l-23.99-20.03c-1.96-1.64-3.17-3.95-3.41-6.5
					c-0.23-2.55,0.54-5.04,2.17-7.01l-0.94-0.78c-1.84,2.22-2.71,5.03-2.44,7.9c0.26,2.88,1.63,5.48,3.84,7.33l7.46,6.23l-0.05-0.03
					l-8.08,14.78c-0.16,0.07-0.31,0.15-0.46,0.23l0.17,0.3l-7.04,12.86c-8.48,15.52-23.01,26.48-39.85,30.08l-7.88,1.67l0.25,1.2
					l7.89-1.67c16.92-3.62,31.57-14.53,40.26-29.98c0.55,8.41,1.64,17.01,8.05,22.01h-1.73c-8.62,0-15.64,7.83-15.64,17.46v7.25
					c0,9,6.13,16.43,13.96,17.37c-6.6,1.73-11.53,8.31-11.53,16.14v7.64c0,8.63,5.97,15.74,13.58,16.52
					c-4.59,2.1-7.84,7.31-7.84,13.37v6.63c0,7.92,5.55,14.37,12.37,14.37h26.84l-47.97,4.92c-53.24,0-84.82-28.61-96.54-87.45
					l-0.13,0.03l-1.55-23.94c-0.46-7.2,0.21-14.39,1.99-21.36c0.05-0.16,4.5-15.92,6.86-21.84l-0.47-0.19
					c11.84-22.53,18.01-26.57,23.46-30.13c1.5-0.98,2.92-1.91,4.42-3.16c0.46-0.39,0.75-0.67,1.02-0.92
					c1.56-1.51,2.03-1.96,37.25-20.69c3.77-2.04,8.86-2.34,13.77-2.64c2.04-0.12,3.95-0.23,5.78-0.46
					c4.94-0.62,9.96-1.35,14.81-2.06c5.69-0.82,11.58-1.68,17.38-2.37c5.56-0.66,12.97-0.63,17.87,3.08l-0.1,0.11l2.07,1.75
					c0.47,0.55,0.89,1.16,1.27,1.82l0.41-0.4L337.9,156.57z"/>
			</g>
			<g>
				<path class="st3" d="M293.74,317.38l0.01,0.1L235,323.5c-0.01,0-0.02,0-0.02,0c-27.78,0-50.13-8.01-66.5-23.8
					c-14.75-14.24-25.12-35.29-30.84-62.59c-0.15-0.67-0.28-1.34-0.42-2.02l1.04-0.21l0.13-0.03c11.72,58.84,43.3,87.45,96.54,87.45
					l47.97-4.92l9.85-1.01l0.88-0.09l0.01,0.09L293.74,317.38z"/>
				<path class="st3" d="M252.47,164.7c-0.3,0.14-0.59,0.29-0.88,0.45l-0.38-0.69l-0.17-0.3c0.15-0.08,0.3-0.16,0.46-0.23
					c0.59-0.32,1.2-0.59,1.83-0.81c1.41-0.52,2.9-0.84,4.39-0.95c0.33-0.02,0.66-0.04,0.99-0.04l0.01,1.13c-0.33,0-0.66,0.01-1,0.04
					C255.92,163.43,254.13,163.91,252.47,164.7z"/>
				<path class="st3" d="M362,201.85c-0.19,0.09-0.37,0.17-0.56,0.25l-0.1,0.04l-0.11-0.01c-1.5-0.1-3-0.2-4.5-0.28
					c-16.29-0.97-32.89-1.22-49.38-1.22c-9.11,0-18.18,0.08-27.15,0.15c-8.8,0.07-17.89,0.15-26.76,0.15h-0.15l-0.13-0.09
					c-0.09-0.07-0.18-0.14-0.27-0.21c-6.41-5-7.5-13.6-8.05-22.01c0-0.02,0-0.05,0-0.07h0.05l0.95-0.08
					c0.56,8.55,1.57,16.62,7.76,21.33c8.81,0,17.85-0.07,26.59-0.15c24.69-0.2,50.16-0.42,74.97,0.98c2.01,0.11,4.02,0.23,6.02,0.37
					c0.27-0.12,0.54-0.24,0.8-0.37c7.37-3.68,11.71-13.49,10.64-24.29c-0.93-6.24-6.32-11.84-12.39-13.12
					c-0.51-0.11-1.02-0.19-1.53-0.23l0.06-0.91l0.02-0.22c7.22,0.64,13.73,6.93,14.84,14.32c1.04,10.45-2.79,20-9.49,24.47
					C363.45,201.11,362.74,201.51,362,201.85z"/>
				<path class="st3" d="M364.13,200.65c8.27,0.45,14.87,8.1,14.87,17.44v7.25c0,9.63-7.02,17.47-15.64,17.47h-1.76H251.16
					c-0.57,0-1.13-0.03-1.68-0.1c-7.83-0.94-13.96-8.37-13.96-17.37v-7.25c0-9.63,7.02-17.46,15.64-17.46h1.73h54.46h47.81h6.82
					h1.38C363.62,200.63,363.88,200.64,364.13,200.65z"/>
				<path class="st3" d="M356.73,201.85H251.16c-8.01,0-14.54,7.29-14.54,16.24v7.25c0,8.96,6.53,16.24,14.54,16.24h112.2
					c8.02,0,14.54-7.28,14.54-16.24v-7.25c0-8.95-6.52-16.24-14.54-16.24H362H356.73z"/>
				<path class="st3" d="M361.6,242.81c6.4,1.88,11.14,8.36,11.14,16.04v7.64c0,9.15-6.72,16.6-14.97,16.6h-10.43h-3.53h-88.92
					h-1.96c-0.47,0-0.94-0.02-1.4-0.08c-7.61-0.78-13.58-7.89-13.58-16.52v-7.64c0-7.83,4.93-14.41,11.53-16.14
					c1.11-0.3,2.26-0.45,3.45-0.45h104.84C359.09,242.26,360.38,242.45,361.6,242.81z"/>
				<path class="st3" d="M252.93,243.42c-7.68,0-13.93,6.92-13.93,15.43v7.64c0,8.51,6.25,15.43,13.93,15.43h104.84
					c7.67,0,13.92-6.92,13.92-15.43v-7.64c0-8.51-6.25-15.43-13.92-15.43H252.93z"/>
				<path class="st3" d="M347.34,283.09c4.5,2.15,7.67,7.3,7.67,13.29v6.63c0,7.92-5.55,14.37-12.37,14.37h-48.9H282.9h-26.84
					c-6.82,0-12.37-6.45-12.37-14.37v-6.63c0-6.06,3.25-11.27,7.84-13.37c1.4-0.65,2.93-1,4.53-1h86.58
					C344.3,282.01,345.89,282.39,347.34,283.09z"/>
				<path class="st3" d="M343.81,283.09c-0.38-0.05-0.77-0.07-1.17-0.07h-86.58c-0.4,0-0.79,0.02-1.17,0.07
					c-5.79,0.68-10.33,6.38-10.33,13.29v6.63c0,7.36,5.16,13.36,11.5,13.36h36.69h0.89h49c6.34,0,11.5-6,11.5-13.36v-6.63
					C354.14,289.47,349.6,283.77,343.81,283.09z"/>
				<path class="st3" d="M342.05,163.22c-0.06,2.01-0.77,4.02-2.15,5.68l-1.77,2.14c-5.71,6.9-13.75,11.15-22.64,11.98
					c-1.05,0.1-2.1,0.14-3.13,0.14c-7.79,0-15.26-2.7-21.32-7.76l-14.48-12.09l-1.48-1.23l-14.54-12.14l-0.91-0.76l-7.46-6.23
					c-2.21-1.85-3.58-4.45-3.84-7.33c-0.27-2.87,0.6-5.68,2.44-7.9l0.94,0.78c-1.63,1.97-2.4,4.46-2.17,7.01
					c0.24,2.55,1.45,4.86,3.41,6.5l23.99,20.03l14.88,12.42c6.62,5.52,14.99,8.13,23.55,7.34c8.57-0.8,16.32-4.9,21.82-11.54
					l1.77-2.14c1.27-1.53,1.88-3.39,1.88-5.23c0-2.36-1-4.7-2.94-6.32l-53.4-45.09l-1.68-1.42l-2.07-1.75l0.1-0.11l0.68-0.83
					l2.52,2.13l54.63,46.12c2.01,1.68,3.15,4.03,3.35,6.46C342.06,162.46,342.07,162.84,342.05,163.22z"/>
				<path class="st3" d="M210.67,111.56c4.01-2.16,9.22-2.47,14.27-2.77c2.01-0.12,3.91-0.23,5.7-0.46
					c4.93-0.62,9.94-1.35,14.78-2.05c5.7-0.83,11.6-1.69,17.41-2.38c6.99-0.83,15.07-1.38,21.22,5.6c0.37,0.42,0.73,0.86,1.09,1.34
					l-0.64,0.64l-0.41,0.4c-0.38-0.66-0.8-1.27-1.27-1.82c-0.59-0.71-1.25-1.33-1.97-1.86c-4.9-3.71-12.31-3.74-17.87-3.08
					c-5.8,0.69-11.69,1.55-17.38,2.37c-4.85,0.71-9.87,1.44-14.81,2.06c-1.83,0.23-3.74,0.34-5.78,0.46c-4.91,0.3-10,0.6-13.77,2.64
					L210.67,111.56"/>
				<path class="st3" d="M244.84,178.62c-8.69,15.45-23.34,26.36-40.26,29.98l-7.89,1.67l-0.25-1.2l7.88-1.67
					c16.84-3.6,31.37-14.56,39.85-30.08l7.04-12.86l0.29-0.53l8.08-14.78l0.05,0.03l1.02,0.56l-0.11,0.2l-7.21,13.18l-0.86,1.58
					l-7.23,13.22c-0.12,0.21-0.23,0.42-0.35,0.63C244.88,178.58,244.86,178.6,244.84,178.62z"/>
				<path class="st3" d="M145.09,167.55c-0.24,0.48-0.5,0.96-0.75,1.45l0.02-0.6c0.01-0.37,0.05-0.73,0.13-1.09
					c0.12-0.6,0.32-1.18,0.6-1.72c11.98-22.87,17.21-25.54,22.8-29.2c1.47-0.96,2.85-1.87,4.3-3.07c0.43-0.37,0.7-0.63,0.95-0.87
					c1.7-1.64,2.15-2.08,37.52-20.89h0.01l0.57,1.09c-35.22,18.73-35.69,19.18-37.25,20.69c-0.27,0.25-0.56,0.53-1.02,0.92
					c-1.5,1.25-2.92,2.18-4.42,3.16C163.1,140.98,156.93,145.02,145.09,167.55z"/>
				<polygon class="st3" points="276.9,162.08 276.9,163.31 276.56,163.31 257.72,163.31 257.72,163.3 257.72,162.17 257.72,162.08 
					275.08,162.08 				"/>
				<polygon class="st3" points="360.23,163.22 342.05,163.22 341.06,163.22 341.06,162.89 341.06,162.08 342.03,162.08 
					358.76,162.08 360.23,162.08 				"/>
				<path class="st3" d="M137.64,237.11l-0.43,0.03l-1.7-26.12c-0.47-7.33,0.21-14.65,2.03-21.76c0.05-0.17,4.52-15.99,6.9-21.97
					l0.05,0.02l0.6,0.24l0.47,0.19c-2.36,5.92-6.81,21.68-6.86,21.84c-1.78,6.97-2.45,14.16-1.99,21.36l1.55,23.94l0.14,2.19
					L137.64,237.11z"/>
			</g>
		</g>
	</g>
</g>
<g>
	<path class="st4" d="M-528.73,503.8l10.42-1.99c19.09-3.64,36.07-15.12,46.7-31.54c-1.28-3.18-0.87-6.3,3.19-9.53l3.91-4.88
		l1.71,1.37l-4.16,5.16c-4.7,3.69-3.83,6.52,0.96,12.61l4.56,5.81l14.52,18.48c11.73,14.92,33.4,17.52,48.32,5.79
		c2.55-2.01,4.18-4.9,4.57-8.16c0.39-3.25-0.5-6.45-2.51-9l-26.9-34.22l0.01-0.01l-5.89-7.49c-1.35-1.72-2.69-3.91-4.68-4.7v-1
		l-0.56,0.83l-49-33l0.52-0.77c-0.1,0.03-0.21,0.06-0.31,0.09c-1.66,0.47-3.31,0.94-4.96,1.41l-2.24,0.64
		c-2.51,0.84-5.07,1.68-7.63,2.53c-9.22,3.04-18.76,6.19-28.01,9.7c-2.48,0.94-5.62,2.31-9.9,4.34
		c-6.17,3.19-13.41,7.06-20.15,11.41l0.02,0.02l-0.12,0.1c-1.28,0.92-2.51,1.85-3.66,2.76l-0.28,0.21c-0.03,0.04-0.07,0.08-0.1,0.12
		l-0.28,0.36c-1.3,1.64-2.52,3.19-4.96,8.24l-0.4,0.7c-0.08,0.14-0.16,0.27-0.24,0.41v0.14l-0.2,0.21
		c-0.08,0.14-0.15,0.28-0.23,0.42c-3.69,8.25-6.65,15.82-9.03,23.07c-0.05,0.22-0.11,0.43-0.16,0.65l-0.07,0.27
		c-1.12,4.8-1.85,9.8-2.21,14.88c5.68,1.56,11.23,3.9,16.6,6.17C-550.63,501.05-540.3,505.42-528.73,503.8z"/>
	<path class="st4" d="M-378.19,546.09C-378.19,546.09-378.19,546.09-378.19,546.09l-72.92-6.95c-0.56-0.05-1.12-0.06-1.67-0.02
		c-2.15,0.14-4.2,0.95-5.91,2.36c-2.14,1.77-3.47,4.26-3.73,7l-1.33,14.01c-0.26,2.74,0.57,5.44,2.34,7.58
		c1.77,2.14,4.26,3.47,7,3.73l106.87,10.18c5.69,0.54,10.76-3.65,11.3-9.34l1.33-14.01c0.26-2.74-0.57-5.44-2.34-7.58
		c-1.77-2.14-4.26-3.47-7-3.73l-32.89-3.13L-378.19,546.09z"/>
	<path class="st4" d="M-462.87,571.27c-2.09-2.53-3.07-5.71-2.76-8.96l1.33-14.01c0.31-3.25,1.87-6.18,4.4-8.27
		c2.53-2.09,5.71-3.07,8.96-2.76l73.52,7c0.1-0.23,0.19-0.46,0.28-0.69l-69.26-6.1c-3.44-0.3-6.56-1.93-8.78-4.59
		c-2.23-2.65-3.29-6.01-2.99-9.44l1.49-16.88c0.32-3.74,2.29-7.17,5.34-9.35c0,0,0,0,0,0l-11.83-15.05l-4.56-5.81
		c-1.11-1.41-2.12-2.78-2.91-4.14c-10.94,16.35-28.08,27.78-47.31,31.45l-10.46,1.99c-1.74,0.24-3.47,0.36-5.17,0.36
		c-10.14,0-19.56-3.99-28.71-7.88c-5.19-2.2-10.55-4.46-15.98-5.99c-0.78,14.86,1.62,30.93,7.16,47.79
		c0.19,0.52,0.38,1.07,0.59,1.63c0.53,1.47,1.13,3.13,1.86,5.37c16.77,37.4,54.08,61.56,95.05,61.56c25.56,0,50.12-9.35,69.18-26.32
		l-0.08-0.09l1.81-1.48l-51.88-4.94C-457.84,575.36-460.78,573.8-462.87,571.27z"/>
	<path class="st4" d="M-392.93,501.18c-0.94,2.19-2.4,4.11-4.31,5.62c-6.69,5.26-14.67,7.81-22.58,7.81
		c-10.85,0-21.6-4.79-28.81-13.97l-1.46-1.86c0,0,0,0,0,0c-2.61,1.86-4.31,4.77-4.59,7.97l-1.48,16.88
		c-0.26,2.9,0.64,5.73,2.52,7.98c1.89,2.25,4.53,3.63,7.43,3.89l106.21,9.35c2.9,0.25,5.73-0.65,7.98-2.53
		c2.25-1.89,3.63-4.53,3.89-7.43l1.48-16.88c0.26-2.9-0.64-5.74-2.52-7.99c-1.89-2.25-4.53-3.63-7.43-3.88L-392.93,501.18
		L-392.93,501.18z"/>
	<path class="st4" d="M-167.35,409.08c-1.18-5.93-6.96-9.78-12.9-8.6l-209.14,41.74l-0.19-0.98l-0.8,0.6
		c-2.62-3.48-5.47-6.82-8.48-9.92l0.71-0.69l-0.3-0.95c64.87-20.51,172.15-54.42,172.15-54.42c5.76-1.82,8.96-7.99,7.14-13.75
		l-6.61-20.89c-0.88-2.78-2.8-5.06-5.41-6.41c-2.61-1.35-5.57-1.62-8.35-0.74l-165.7,52.39c-2.42,0.77-4.78,1.51-7.11,2.24
		c-8.68,2.71-17.69,4.86-26.41,6.93c-7.57,1.8-15.39,3.66-22.9,5.88l-0.28-0.96l0.26,0.91l-4.01,1.14
		c-5.41,1.54-10.72,3.06-16.04,4.59l48.25,32.5l-0.05,0.07c2.19,1.05,4.41,3.23,5.89,5.1l5.9,7.51l-0.01,0.01l26.88,34.2
		c2.37,3.01,3.42,6.79,2.96,10.62c-0.08,0.7-0.23,1.39-0.41,2.06l0.02,0l22.69,2c-0.17-5.67-0.78-11.34-1.86-16.89l0.98-0.19
		l-0.19-0.98l198.99-39.72c2.86-0.57,5.33-2.23,6.96-4.67c1.63-2.44,2.21-5.36,1.65-8.22L-167.35,409.08z"/>
	<path class="st4" d="M-161.1,430.18l-4.29-21.49c-1.39-7-8.24-11.56-15.24-10.17l-208.54,41.62c-2.24-2.94-4.64-5.77-7.16-8.44
		c65.01-20.55,170.64-53.94,170.64-53.94c6.81-2.15,10.59-9.45,8.44-16.26l-6.61-20.89c-1.04-3.29-3.31-5.98-6.39-7.58
		c-3.08-1.6-6.58-1.91-9.87-0.87l-165.7,52.39c-2.42,0.77-4.78,1.51-7.1,2.24c-8.61,2.69-17.59,4.83-26.28,6.9
		c-7.59,1.81-15.44,3.68-23,5.9l0.02,0.05l-4,1.14c-5.97,1.7-11.83,3.38-17.7,5.06c-1.66,0.47-3.31,0.94-4.96,1.41l-2.28,0.65
		c-2.55,0.85-5.1,1.69-7.67,2.54c-9.24,3.05-18.8,6.2-28.09,9.73c-2.53,0.96-5.71,2.35-10.06,4.41
		c-6.25,3.23-13.55,7.13-20.35,11.52l-0.02-0.04l-0.21,0.11l-0.06,0.06c-0.27,0.2-0.53,0.39-0.8,0.59
		c-0.62,0.41-1.25,0.82-1.86,1.24l-0.16,0.14c-0.19,0.2-0.38,0.39-0.56,0.57c-0.01,0.01-0.03,0.02-0.04,0.03l-0.08,0l-0.24,0.24
		c-0.1,0.08-0.21,0.15-0.31,0.24l-0.17,0.18c-0.04,0.05-0.08,0.1-0.12,0.15l-0.3,0.38l-0.18,0.17c-0.71,0.67-1.38,1.29-2.1,2.06
		l-0.16,0.24c-1.03,2.16-2.09,4.44-3.22,6.93l-0.38,0.65v0.02c-4.31,7.66-7.51,15.84-9.51,24.32l-0.09,0.1v0.28
		c-1.21,5.18-2,10.59-2.35,16.08c-0.99,15.44,1.43,32.17,7.21,49.74c0.19,0.55,0.39,1.1,0.6,1.67c0.53,1.46,1.13,3.12,1.85,5.35
		l0.04,0.1c17.08,38.14,55.12,62.78,96.89,62.78c26.13,0,51.23-9.58,70.68-26.98l-0.07-0.08l2.65-2.16l-0.39-0.48l53.03,5.05l0,0
		c0.67,0.06,1.32,0.07,1.97,0.03c5.89-0.39,10.81-5.01,11.39-11.07l1.33-14.01c0.31-3.25-0.67-6.43-2.76-8.96
		c-2.09-2.53-5.03-4.09-8.27-4.4l-31.27-2.98c0,0,0,0,0,0c0.1-0.23,0.19-0.46,0.28-0.7l34.86,3.07c0.39,0.03,0.77,0.05,1.15,0.05
		c3.02,0,5.93-1.06,8.29-3.04c2.66-2.23,4.29-5.34,4.59-8.78l1.49-16.87c0.3-3.44-0.76-6.79-2.99-9.45
		c-2.22-2.65-5.34-4.28-8.78-4.59l-31.11-2.74l-0.01,0c-0.15-5.52-0.74-11.04-1.74-16.46l198.04-39.53c3.38-0.67,6.3-2.64,8.23-5.52
		C-161.12,437.01-160.43,433.56-161.1,430.18z M-575.96,475.35l0.07-0.27c0.05-0.22,0.11-0.43,0.16-0.65
		c2.39-7.25,5.35-14.82,9.03-23.07c0.08-0.14,0.15-0.28,0.23-0.42l0.2-0.21v-0.14c0.08-0.13,0.16-0.27,0.24-0.41l0.4-0.7
		c2.44-5.06,3.67-6.6,4.96-8.24l0.28-0.36c0.03-0.04,0.07-0.08,0.1-0.12l0.28-0.21c1.15-0.91,2.39-1.83,3.66-2.76l0.12-0.1
		l-0.02-0.02c6.73-4.35,13.97-8.21,20.15-11.41c4.27-2.02,7.42-3.4,9.9-4.34c9.25-3.51,18.79-6.66,28.01-9.7
		c2.56-0.85,5.12-1.69,7.63-2.53l2.24-0.64c1.65-0.47,3.3-0.94,4.96-1.41c0.1-0.03,0.21-0.06,0.31-0.09l-0.52,0.77l49,33l0.56-0.83
		v1c1.99,0.79,3.33,2.98,4.68,4.7l5.89,7.49l-0.01,0.01l26.9,34.22c2.01,2.55,2.9,5.75,2.51,9c-0.39,3.25-2.01,6.15-4.57,8.16
		c-14.92,11.73-36.59,9.13-48.32-5.79l-14.52-18.48l-4.56-5.81c-4.79-6.1-5.66-8.92-0.96-12.61l4.16-5.16l-1.71-1.37l-3.91,4.88
		c-4.06,3.23-4.47,6.35-3.19,9.53c-10.63,16.41-27.61,27.9-46.7,31.54l-10.42,1.99c-11.57,1.62-21.9-2.76-32.84-7.4
		c-5.37-2.28-10.92-4.62-16.6-6.17C-577.81,485.15-577.07,480.15-575.96,475.35z M-404.52,582.09l0.08,0.09
		c-19.06,16.97-43.62,26.32-69.18,26.32c-40.97,0-78.28-24.16-95.05-61.56c-0.73-2.24-1.33-3.9-1.86-5.37
		c-0.21-0.57-0.4-1.11-0.59-1.63c-5.54-16.86-7.95-32.93-7.16-47.79c5.43,1.52,10.79,3.79,15.98,5.99
		c9.15,3.88,18.58,7.88,28.71,7.88c1.7,0,3.42-0.11,5.17-0.36l10.46-1.99c19.24-3.67,36.37-15.1,47.31-31.45
		c0.79,1.35,1.81,2.73,2.91,4.14l4.56,5.81l11.83,15.05c0,0,0,0,0,0c-3.05,2.18-5.02,5.61-5.34,9.35l-1.49,16.88
		c-0.3,3.43,0.76,6.79,2.99,9.44c2.22,2.66,5.34,4.29,8.78,4.59l69.26,6.1c-0.09,0.23-0.18,0.46-0.28,0.69l-73.52-7
		c-3.25-0.31-6.43,0.67-8.96,2.76c-2.53,2.09-4.09,5.03-4.4,8.27l-1.33,14.01c-0.31,3.25,0.67,6.43,2.76,8.96
		c2.09,2.53,5.03,4.09,8.27,4.4l51.88,4.94L-404.52,582.09z M-344.24,549.32c2.74,0.26,5.23,1.58,7,3.73
		c1.77,2.14,2.6,4.83,2.34,7.58l-1.33,14.01c-0.54,5.69-5.61,9.88-11.3,9.34l-106.87-10.18c-2.74-0.26-5.23-1.58-7-3.73
		c-1.77-2.14-2.6-4.83-2.34-7.58l1.33-14.01c0.26-2.74,1.58-5.23,3.73-7c1.71-1.41,3.76-2.22,5.91-2.36
		c0.55-0.04,1.11-0.03,1.67,0.02l72.92,6.94c0,0,0,0,0,0l1.05,0.1L-344.24,549.32z M-336.62,506.14c2.9,0.25,5.54,1.63,7.43,3.88
		c1.88,2.25,2.78,5.09,2.52,7.99l-1.48,16.88c-0.26,2.9-1.64,5.54-3.89,7.43c-2.25,1.88-5.08,2.78-7.98,2.53l-106.21-9.35
		c-2.9-0.26-5.54-1.64-7.43-3.89c-1.88-2.25-2.78-5.08-2.52-7.98l1.48-16.88c0.28-3.2,1.98-6.11,4.59-7.97c0,0,0,0,0,0l1.46,1.86
		c7.21,9.17,17.96,13.97,28.81,13.97c7.92,0,15.89-2.55,22.58-7.81c1.91-1.5,3.38-3.43,4.31-5.62l0,0L-336.62,506.14z
		 M-164.7,438.79c-1.63,2.44-4.1,4.1-6.96,4.67l-198.99,39.72l0.19,0.98l-0.98,0.19c1.08,5.54,1.69,11.22,1.86,16.89l-22.69-2
		l-0.02,0c0.18-0.67,0.33-1.35,0.41-2.06c0.46-3.83-0.59-7.6-2.96-10.62l-26.88-34.2l0.01-0.01l-5.9-7.51
		c-1.47-1.87-3.7-4.05-5.89-5.1l0.05-0.07l-48.25-32.5c5.32-1.53,10.64-3.04,16.04-4.59l4.01-1.14l-0.26-0.91l0.28,0.96
		c7.51-2.21,15.33-4.07,22.9-5.88c8.72-2.08,17.73-4.22,26.41-6.93c2.32-0.73,4.69-1.48,7.11-2.24l165.7-52.39
		c2.78-0.88,5.74-0.62,8.35,0.74c2.61,1.35,4.53,3.63,5.41,6.41l6.61,20.89c1.82,5.76-1.38,11.93-7.14,13.75
		c0,0-107.28,33.92-172.15,54.42l0.3,0.95l-0.71,0.69c3.01,3.1,5.86,6.43,8.48,9.92l0.8-0.6l0.19,0.98l209.14-41.74
		c5.94-1.18,11.72,2.68,12.9,8.6l4.29,21.49C-162.49,433.43-163.07,436.35-164.7,438.79z"/>
</g>
</svg>
